<?xml version="1.0" encoding="UTF-8" standalone="no"?>
<!-- Created with Inkscape (http://www.inkscape.org/) -->

<svg
   xmlns:dc="http://purl.org/dc/elements/1.1/"
   xmlns:cc="http://creativecommons.org/ns#"
   xmlns:rdf="http://www.w3.org/1999/02/22-rdf-syntax-ns#"
   xmlns:svg="http://www.w3.org/2000/svg"
   xmlns="http://www.w3.org/2000/svg"
   xmlns:sodipodi="http://sodipodi.sourceforge.net/DTD/sodipodi-0.dtd"
   xmlns:inkscape="http://www.inkscape.org/namespaces/inkscape"
   version="1.1"
   id="svg20645"
   xml:space="preserve"
   width="800"
   height="800"
   viewBox="0 0 800 800"
   sodipodi:docname="network-dots-publicdomainvectors.org.svg"
   inkscape:version="0.92.4 (5da689c313, 2019-01-14)"><metadata
     id="metadata20651"><rdf:RDF><cc:Work
         rdf:about=""><dc:format>image/svg+xml</dc:format><dc:type
           rdf:resource="http://purl.org/dc/dcmitype/StillImage" /><dc:title></dc:title></cc:Work></rdf:RDF></metadata><defs
     id="defs20649"><clipPath
       clipPathUnits="userSpaceOnUse"
       id="clipPath20661"><path
         d="M 0,600 H 600 V 0 H 0 Z"
         id="path20659"
         inkscape:connector-curvature="0" /></clipPath><clipPath
       clipPathUnits="userSpaceOnUse"
       id="clipPath20673"><path
         d="m 74.978,593.763 h 91.463 V 502.358 H 74.978 Z"
         id="path20671"
         inkscape:connector-curvature="0" /></clipPath><clipPath
       clipPathUnits="userSpaceOnUse"
       id="clipPath20689"><path
         d="m 253.332,400.29 h 91.465 v -91.405 h -91.465 z"
         id="path20687"
         inkscape:connector-curvature="0" /></clipPath><clipPath
       clipPathUnits="userSpaceOnUse"
       id="clipPath20705"><path
         d="M 0,181.821 H 12.4771 V 119.076 H 0 Z"
         id="path20703"
         inkscape:connector-curvature="0" /></clipPath><clipPath
       clipPathUnits="userSpaceOnUse"
       id="clipPath20721"><path
         d="m 122.505,28.5762 h 84.824 V 0 h -84.824 z"
         id="path20719"
         inkscape:connector-curvature="0" /></clipPath><clipPath
       clipPathUnits="userSpaceOnUse"
       id="clipPath20737"><path
         d="M 0,599.862 H 479.864 V 0 H 0 Z"
         id="path20735"
         inkscape:connector-curvature="0" /></clipPath><clipPath
       clipPathUnits="userSpaceOnUse"
       id="clipPath20741"><path
         d="M 59.0488,274.108 H 186.415 V 146.827 H 59.0488 Z"
         id="path20739"
         inkscape:connector-curvature="0" /></clipPath><clipPath
       clipPathUnits="userSpaceOnUse"
       id="clipPath20745"><path
         d="M 362.295,36.5107 H 477.547 V 0 H 362.295 Z"
         id="path20743"
         inkscape:connector-curvature="0" /></clipPath><clipPath
       clipPathUnits="userSpaceOnUse"
       id="clipPath20785"><path
         d="M 0,599.862 H 431.521 V 0 H 0 Z"
         id="path20783"
         inkscape:connector-curvature="0" /></clipPath><clipPath
       clipPathUnits="userSpaceOnUse"
       id="clipPath20789"><path
         d="M 22.3442,493.327 H 124.235 V 391.5 H 22.3442 Z"
         id="path20787"
         inkscape:connector-curvature="0" /></clipPath><clipPath
       clipPathUnits="userSpaceOnUse"
       id="clipPath20793"><path
         d="M 235.182,291.744 H 337.079 V 189.915 H 235.182 Z"
         id="path20791"
         inkscape:connector-curvature="0" /></clipPath><clipPath
       clipPathUnits="userSpaceOnUse"
       id="clipPath20797"><path
         d="m 242.484,519.295 h 76.423 v -76.373 h -76.423 z"
         id="path20795"
         inkscape:connector-curvature="0" /></clipPath><clipPath
       clipPathUnits="userSpaceOnUse"
       id="clipPath20801"><path
         d="M 94.7061,311.441 H 171.129 V 235.068 H 94.7061 Z"
         id="path20799"
         inkscape:connector-curvature="0" /></clipPath><clipPath
       clipPathUnits="userSpaceOnUse"
       id="clipPath20805"><path
         d="m 228.704,137.153 h 76.427 V 60.7812 h -76.427 z"
         id="path20803"
         inkscape:connector-curvature="0" /></clipPath><clipPath
       clipPathUnits="userSpaceOnUse"
       id="clipPath20809"><path
         d="m 363.012,508.264 h 50.956 V 457.34 h -50.956 z"
         id="path20807"
         inkscape:connector-curvature="0" /></clipPath><clipPath
       clipPathUnits="userSpaceOnUse"
       id="clipPath20813"><path
         d="m 280.509,417.007 h 50.958 V 366.08 h -50.958 z"
         id="path20811"
         inkscape:connector-curvature="0" /></clipPath><clipPath
       clipPathUnits="userSpaceOnUse"
       id="clipPath20817"><path
         d="m 378.437,346.895 h 50.956 v -50.923 h -50.956 z"
         id="path20815"
         inkscape:connector-curvature="0" /></clipPath><clipPath
       clipPathUnits="userSpaceOnUse"
       id="clipPath20821"><path
         d="m 235.382,251.601 h 50.956 v -50.928 h -50.956 z"
         id="path20819"
         inkscape:connector-curvature="0" /></clipPath><clipPath
       clipPathUnits="userSpaceOnUse"
       id="clipPath20825"><path
         d="m 116.384,130.139 h 50.958 V 79.207 h -50.958 z"
         id="path20823"
         inkscape:connector-curvature="0" /></clipPath><clipPath
       clipPathUnits="userSpaceOnUse"
       id="clipPath20829"><path
         d="m 203.561,1.40723 h 16.682 V 0 h -16.682 z"
         id="path20827"
         inkscape:connector-curvature="0" /></clipPath><clipPath
       clipPathUnits="userSpaceOnUse"
       id="clipPath20833"><path
         d="m 241.001,128.36 h 25.482 v -25.466 h -25.482 z"
         id="path20831"
         inkscape:connector-curvature="0" /></clipPath><clipPath
       clipPathUnits="userSpaceOnUse"
       id="clipPath20837"><path
         d="m 193.114,89.7373 h 25.48 V 64.2764 h -25.48 z"
         id="path20835"
         inkscape:connector-curvature="0" /></clipPath><clipPath
       clipPathUnits="userSpaceOnUse"
       id="clipPath20841"><path
         d="m 235.988,47.459 h 25.481 V 21.998 h -25.481 z"
         id="path20839"
         inkscape:connector-curvature="0" /></clipPath><clipPath
       clipPathUnits="userSpaceOnUse"
       id="clipPath20845"><path
         d="m 157.933,11.583 h 25.376 V 0 h -25.376 z"
         id="path20843"
         inkscape:connector-curvature="0" /></clipPath></defs><sodipodi:namedview
     pagecolor="#ffffff"
     bordercolor="#666666"
     borderopacity="1"
     objecttolerance="10"
     gridtolerance="10"
     guidetolerance="10"
     inkscape:pageopacity="0"
     inkscape:pageshadow="2"
     inkscape:window-width="1920"
     inkscape:window-height="1018"
     id="namedview20647"
     showgrid="false"
     inkscape:zoom="0.93453358"
     inkscape:cx="464.40678"
     inkscape:cy="427.11864"
     inkscape:window-x="-8"
     inkscape:window-y="-8"
     inkscape:window-maximized="1"
     inkscape:current-layer="g20653" /><g
     id="g20653"
     inkscape:groupmode="layer"
     inkscape:label="network-dots-publicdomainvectors.org"
     transform="matrix(1.3333333,0,0,-1.3333333,0,800)"><g
       id="g20655"><g
         id="g20657"
         clip-path="url(#clipPath20661)"><path
           d="M 147.025,0 C 113.037,28.739 41.188,89.495 0,124.324 v -3.988 C 41.382,85.343 108.155,28.878 142.306,0 Z"
           style="fill:#80cc32;fill-opacity:1;fill-rule:nonzero;stroke:none"
           id="path20663"
           inkscape:connector-curvature="0" /><path
           d="M 147.036,599.862 C 135.695,579.07 126.012,561.138 119.364,548.78 l -0.536,-0.996 0.805,-0.801 C 190.522,476.139 295.421,367.95 298.261,355.917 280.62,352.48 83.553,227.116 0,173.606 v -3.611 c 125.28,80.266 289.096,183.069 299.065,183.069 1.024,0 1.839,0.508 2.198,1.36 0.951,2.308 2.947,7.12 -88.345,101.887 -41.647,43.235 -84.192,85.882 -90.326,92.024 8.717,16.199 18.169,33.63 27.954,51.527 z"
           style="fill:#80cc32;fill-opacity:1;fill-rule:nonzero;stroke:none"
           id="path20665"
           inkscape:connector-curvature="0" /><g
           id="g20667"><g
             id="g20669" /><g
             id="g20679"><g
               clip-path="url(#clipPath20673)"
               id="g20677"><path
                 d="m 120.709,593.763 c -25.259,0 -45.731,-20.465 -45.731,-45.703 0,-25.243 20.472,-45.702 45.731,-45.702 25.254,0 45.732,20.459 45.732,45.702 0,25.238 -20.478,45.703 -45.732,45.703"
                 style="fill:#00a0c1;fill-opacity:1;fill-rule:nonzero;stroke:none"
                 id="path20675"
                 inkscape:connector-curvature="0" /></g></g></g><path
           d="m 120.709,503.882 c -24.377,0 -44.207,19.818 -44.207,44.178 0,24.359 19.83,44.18 44.207,44.18 24.373,0 44.208,-19.821 44.208,-44.18 0,-24.36 -19.835,-44.178 -44.208,-44.178 m 0,-3.048 c 26.058,0 47.257,21.186 47.257,47.226 0,26.042 -21.199,47.227 -47.257,47.227 -26.057,0 -47.255,-21.185 -47.255,-47.227 0,-26.04 21.198,-47.226 47.255,-47.226"
           style="fill:#80cc32;fill-opacity:1;fill-rule:nonzero;stroke:none"
           id="path20681"
           inkscape:connector-curvature="0" /><g
           id="g20683"><g
             id="g20685" /><g
             id="g20695"><g
               clip-path="url(#clipPath20689)"
               id="g20693"><path
                 d="m 299.065,400.29 c -25.259,0 -45.733,-20.465 -45.733,-45.704 0,-25.242 20.474,-45.701 45.733,-45.701 25.253,0 45.732,20.459 45.732,45.701 0,25.239 -20.479,45.704 -45.732,45.704"
                 style="fill:#80cc32;fill-opacity:1;fill-rule:nonzero;stroke:none"
                 id="path20691"
                 inkscape:connector-curvature="0" /></g></g></g><path
           d="m 299.065,310.409 c -24.378,0 -44.208,19.819 -44.208,44.177 0,24.36 19.83,44.18 44.208,44.18 24.373,0 44.207,-19.82 44.207,-44.18 0,-24.358 -19.834,-44.177 -44.207,-44.177 m 0,-3.048 c 26.058,0 47.256,21.185 47.256,47.225 0,26.042 -21.198,47.227 -47.256,47.227 -26.057,0 -47.256,-21.185 -47.256,-47.227 0,-26.04 21.199,-47.225 47.256,-47.225"
           style="fill:#fff200;fill-opacity:1;fill-rule:nonzero;stroke:none"
           id="path20697"
           inkscape:connector-curvature="0" /><g
           id="g20699"><g
             id="g20701" /><g
             id="g20711"><g
               clip-path="url(#clipPath20705)"
               id="g20709"><path
                 d="m 0,119.076 c 7.735,8.185 12.477,19.225 12.477,31.373 0,12.146 -4.742,23.186 -12.477,31.372 z"
                 style="fill:#80cc32;fill-opacity:1;fill-rule:nonzero;stroke:none"
                 id="path20707"
                 inkscape:connector-curvature="0" /></g></g></g><path
           d="m 0,116.928 c 8.642,8.562 14.002,20.427 14.002,33.521 0,13.095 -5.36,24.96 -14.002,33.524 v -4.445 C 6.816,171.753 10.953,161.575 10.953,150.449 10.953,139.325 6.816,129.146 0,121.371 Z"
           style="fill:#80cc32;fill-opacity:1;fill-rule:nonzero;stroke:none"
           id="path20713"
           inkscape:connector-curvature="0" /><g
           id="g20715"><g
             id="g20717" /><g
             id="g20727"><g
               clip-path="url(#clipPath20721)"
               id="g20725"><path
                 d="M 207.329,0 C 200.547,16.754 184.112,28.576 164.917,28.576 145.718,28.576 129.285,16.754 122.505,0 Z"
                 style="fill:#80cc32;fill-opacity:1;fill-rule:nonzero;stroke:none"
                 id="path20723"
                 inkscape:connector-curvature="0" /></g></g></g><path
           d="M 208.958,0 C 202.083,17.6 184.934,30.1 164.917,30.1 144.901,30.1 127.751,17.6 120.875,0 h 3.291 c 6.707,15.879 22.447,27.053 40.751,27.053 18.301,0 34.043,-11.174 40.751,-27.053 z"
           style="fill:#80cc32;fill-opacity:1;fill-rule:nonzero;stroke:none"
           id="path20729"
           inkscape:connector-curvature="0" /><g
           id="g20731"><g
             id="g20733" /><g
             id="g20777"><g
               clip-path="url(#clipPath20737)"
               id="g20775"
               style="opacity:0.5"><path
                 d="m 389.384,0 c -77.682,62.106 -265.321,212.123 -265.321,212.123 0,0 -60.15,50.863 -124.063,104.908 v -5.557 c 63.159,-53.408 121.365,-102.627 121.365,-102.627 0,0 182.966,-146.283 261.221,-208.847 z"
                 style="fill:#52c390;fill-opacity:1;fill-rule:nonzero;stroke:none"
                 id="path20747"
                 inkscape:connector-curvature="0" /><path
                 d="M 88.244,599.862 C 58.454,581.189 28.395,562.211 0,544.207 v -5.039 c 32.563,20.637 65.16,41.185 96.333,60.694 z"
                 style="fill:#52c390;fill-opacity:1;fill-rule:nonzero;stroke:none"
                 id="path20749"
                 inkscape:connector-curvature="0" /><g
                 id="g20759"><g
                   id="g20751" /><g
                   id="g20757"><g
                     clip-path="url(#clipPath20741)"
                     id="g20755"><path
                       d="m 122.735,274.108 c -35.174,0 -63.686,-28.497 -63.686,-63.642 0,-35.153 28.512,-63.639 63.686,-63.639 35.169,0 63.68,28.486 63.68,63.639 0,35.145 -28.511,63.642 -63.68,63.642"
                       style="fill:#52c390;fill-opacity:1;fill-rule:nonzero;stroke:none"
                       id="path20753"
                       inkscape:connector-curvature="0" /></g></g></g><path
                 d="m 122.735,148.945 c -33.948,0 -61.56,27.602 -61.56,61.521 0,33.926 27.612,61.522 61.56,61.522 33.942,0 61.56,-27.596 61.56,-61.522 0,-33.919 -27.618,-61.521 -61.56,-61.521 m 0,-4.242 c 36.282,0 65.805,29.503 65.805,65.763 0,36.263 -29.523,65.764 -65.805,65.764 -36.288,0 -65.806,-29.501 -65.806,-65.764 0,-36.26 29.518,-65.763 65.806,-65.763"
                 style="fill:#52c390;fill-opacity:1;fill-rule:nonzero;stroke:none"
                 id="path20761"
                 inkscape:connector-curvature="0" /><g
                 id="g20771"><g
                   id="g20763" /><g
                   id="g20769"><g
                     clip-path="url(#clipPath20745)"
                     id="g20767"><path
                       d="M 477.547,0 C 467.354,21.579 445.379,36.511 419.92,36.511 394.462,36.511 372.488,21.579 362.295,0 Z"
                       style="fill:#52c390;fill-opacity:1;fill-rule:nonzero;stroke:none"
                       id="path20765"
                       inkscape:connector-curvature="0" /></g></g></g><path
                 d="M 479.864,0 C 469.507,22.764 446.535,38.632 419.92,38.632 393.308,38.632 370.336,22.764 359.979,0 h 4.697 c 10.049,20.354 31.034,34.389 55.244,34.389 24.207,0 45.195,-14.035 55.245,-34.389 z"
                 style="fill:#52c390;fill-opacity:1;fill-rule:nonzero;stroke:none"
                 id="path20773"
                 inkscape:connector-curvature="0" /></g></g></g><g
           id="g20779"><g
             id="g20781" /><g
             id="g21039"><g
               clip-path="url(#clipPath20785)"
               id="g21037"
               style="opacity:0.5"><path
                 d="m 144.094,599.862 c -0.724,-1.52 -1.454,-3.056 -2.191,-4.608 -35.709,-75.171 -70.206,-151.2 -70.551,-151.959 l -0.65,-1.435 1.191,-1.041 C 154.949,368.366 278.152,257.479 284.571,242.512 264.523,235.702 98.365,114.319 0,41.75 v -5.261 c 126.025,92.98 272.912,199.181 285.934,202.158 0.127,0.03 0.239,0.05 0.34,0.059 0.203,0.015 0.386,0.042 0.571,0.083 1.031,0.235 1.811,0.915 2.138,1.881 0.989,2.936 2.829,8.405 -105.993,107.038 -49.144,44.542 -99.175,88.334 -107.119,95.271 21.707,47.848 48.212,105.13 72.882,156.883 z"
                 style="fill:#00a0c1;fill-opacity:1;fill-rule:nonzero;stroke:none"
                 id="path20847"
                 inkscape:connector-curvature="0" /><g
                 id="g20857"><g
                   id="g20849" /><g
                   id="g20855"><g
                     clip-path="url(#clipPath20789)"
                     id="g20853"><path
                       d="m 69.839,493.208 c -28.07,-1.898 -49.284,-26.185 -47.376,-54.239 1.9,-28.055 26.207,-49.255 54.277,-47.35 28.071,1.907 49.281,26.193 47.377,54.245 -1.904,28.055 -26.207,49.249 -54.278,47.344"
                       style="fill:#00a0c1;fill-opacity:1;fill-rule:nonzero;stroke:none"
                       id="path20851"
                       inkscape:connector-curvature="0" /></g></g></g><path
                 d="m 121.999,445.724 c 1.825,-26.842 -18.543,-50.162 -45.407,-51.991 -13.011,-0.878 -25.584,3.353 -35.407,11.926 -9.831,8.569 -15.726,20.45 -16.607,33.452 -0.885,13.003 3.355,25.571 11.929,35.386 8.575,9.822 20.464,15.714 33.478,16.595 26.858,1.825 50.195,-18.529 52.014,-45.368 M 38.393,402.46 c 10.676,-9.316 24.348,-13.919 38.49,-12.957 29.196,1.986 51.336,27.332 49.353,56.503 -1.984,29.175 -27.344,51.3 -56.54,49.317 -14.142,-0.955 -27.064,-7.358 -36.389,-18.034 -9.319,-10.673 -13.925,-24.331 -12.963,-38.46 0.958,-14.14 7.371,-27.056 18.049,-36.369"
                 style="fill:#00a0c1;fill-opacity:1;fill-rule:nonzero;stroke:none"
                 id="path20859"
                 inkscape:connector-curvature="0" /><g
                 id="g20869"><g
                   id="g20861" /><g
                   id="g20867"><g
                     clip-path="url(#clipPath20793)"
                     id="g20865"><path
                       d="m 282.684,291.625 c -28.077,-1.908 -49.294,-26.193 -47.383,-54.246 1.906,-28.055 26.207,-49.255 54.278,-47.344 28.069,1.898 49.287,26.184 47.381,54.238 -1.906,28.056 -26.213,49.255 -54.276,47.352"
                       style="fill:#00a0c1;fill-opacity:1;fill-rule:nonzero;stroke:none"
                       id="path20863"
                       inkscape:connector-curvature="0" /></g></g></g><path
                 d="m 334.841,244.131 c 0.88,-13.003 -3.354,-25.567 -11.928,-35.394 -8.574,-9.814 -20.467,-15.706 -33.476,-16.587 -13.012,-0.887 -25.582,3.344 -35.414,11.916 -9.824,8.574 -15.719,20.453 -16.607,33.454 -1.643,24.243 14.815,45.619 37.806,50.873 2.46,0.563 5.002,0.94 7.598,1.114 26.863,1.823 50.199,-18.535 52.021,-45.376 m -83.604,-43.259 c 10.677,-9.316 24.348,-13.914 38.486,-12.953 14.14,0.955 27.068,7.357 36.381,18.034 9.328,10.67 13.935,24.331 12.976,38.464 -1.983,29.178 -27.351,51.302 -56.545,49.323 -29.19,-1.984 -51.33,-27.332 -49.353,-56.504 0.959,-14.138 7.366,-27.052 18.055,-36.364"
                 style="fill:#00a0c1;fill-opacity:1;fill-rule:nonzero;stroke:none"
                 id="path20871"
                 inkscape:connector-curvature="0" /><path
                 d="m 266.736,101.034 c 0.013,0.004 0.026,0.012 0.035,0.015 0.12,0.027 0.24,0.035 0.335,0.027 -0.084,0.013 -0.268,-0.042 -0.37,-0.042 M 68.581,0 c 91.393,47.104 184.265,93.757 197.149,96.701 0.435,0.101 0.781,0.149 1.032,0.152 0.332,-0.036 0.654,-0.008 0.958,0.061 0.756,0.172 1.393,0.649 1.762,1.357 1.214,2.32 3.245,6.203 -66.009,92.293 -30.737,38.216 -62.178,75.958 -67.911,82.838 53.636,81.323 135.974,202.252 145.347,205.629 l -0.405,-0.033 c 7.309,-0.655 78.938,66.756 135.146,120.864 h -6.178 C 349.485,542.251 287.961,484.89 280.701,483.233 c -0.019,-0.007 -0.037,-0.01 -0.047,-0.012 -0.251,0.027 -0.525,0.05 -0.889,-0.033 -3.239,-0.741 -13.826,-10.034 -78.512,-104.465 -35.282,-51.498 -69.762,-103.784 -70.108,-104.302 l -0.869,-1.315 1.016,-1.215 C 181.543,211.794 260.532,114.334 265.206,100.787 247.952,96.507 139.457,41.371 59.332,0 Z"
                 style="fill:#00a0c1;fill-opacity:1;fill-rule:nonzero;stroke:none"
                 id="path20873"
                 inkscape:connector-curvature="0" /><g
                 id="g20883"><g
                   id="g20875" /><g
                   id="g20881"><g
                     clip-path="url(#clipPath20797)"
                     id="g20879"><path
                       d="m 284.106,519.14 c -21.02,1.886 -39.586,-13.619 -41.467,-34.622 -1.882,-21.009 13.63,-39.556 34.648,-41.441 21.022,-1.881 39.588,13.626 41.465,34.627 1.887,21.003 -13.626,39.561 -34.646,41.436"
                       style="fill:#bf2329;fill-opacity:1;fill-rule:nonzero;stroke:none"
                       id="path20877"
                       inkscape:connector-curvature="0" /></g></g></g><path
                 d="m 284.298,521.251 z m 32.339,-43.356 c -1.768,-19.808 -19.335,-34.474 -39.158,-32.707 -19.816,1.779 -34.501,19.337 -32.726,39.142 0.863,9.589 5.406,18.278 12.802,24.458 7.401,6.171 16.756,9.102 26.362,8.239 9.598,-0.857 18.287,-5.398 24.468,-12.785 6.186,-7.397 9.115,-16.753 8.252,-26.347 m -39.539,-36.931 c 22.151,-1.982 41.79,14.419 43.768,36.552 0.963,10.727 -2.311,21.18 -9.219,29.442 -6.915,8.26 -16.626,13.342 -27.349,14.293 -4.3,0.387 -8.551,0.093 -12.643,-0.841 -6.121,-1.398 -11.867,-4.234 -16.821,-8.369 -8.265,-6.9 -13.351,-16.61 -14.31,-27.333 -1.978,-22.131 14.429,-41.757 36.574,-43.744"
                 style="fill:#00a0c1;fill-opacity:1;fill-rule:nonzero;stroke:none"
                 id="path20885"
                 inkscape:connector-curvature="0" /><g
                 id="g20895"><g
                   id="g20887" /><g
                   id="g20893"><g
                     clip-path="url(#clipPath20801)"
                     id="g20891"><path
                       d="m 136.326,311.286 c -21.017,1.881 -39.584,-13.618 -41.465,-34.629 -1.882,-21.003 13.63,-39.553 34.65,-41.434 21.017,-1.881 39.58,13.62 41.463,34.628 1.884,21.003 -13.628,39.554 -34.648,41.435"
                       style="fill:#ed1c24;fill-opacity:1;fill-rule:nonzero;stroke:none"
                       id="path20889"
                       inkscape:connector-curvature="0" /></g></g></g><path
                 d="m 168.859,270.038 c -0.857,-9.597 -5.402,-18.278 -12.802,-24.456 -7.393,-6.177 -16.753,-9.103 -26.355,-8.247 -9.601,0.859 -18.293,5.403 -24.474,12.794 -6.181,7.389 -9.111,16.743 -8.254,26.342 1.43,15.938 13.092,28.557 27.922,31.947 3.597,0.821 7.378,1.098 11.24,0.755 19.821,-1.777 34.501,-19.328 32.723,-39.135 M 101.97,247.407 c 6.908,-8.262 16.619,-13.337 27.353,-14.298 10.727,-0.957 21.192,2.313 29.462,9.219 8.265,6.902 13.344,16.61 14.302,27.336 1.989,22.13 -14.422,41.753 -36.567,43.734 h -0.006 c -22.152,1.982 -41.785,-14.416 -43.767,-36.553 -0.959,-10.716 2.314,-21.178 9.223,-29.438"
                 style="fill:#00a0c1;fill-opacity:1;fill-rule:nonzero;stroke:none"
                 id="path20897"
                 inkscape:connector-curvature="0" /><g
                 id="g20907"><g
                   id="g20899" /><g
                   id="g20905"><g
                     clip-path="url(#clipPath20805)"
                     id="g20903"><path
                       d="m 270.328,136.999 c -21.027,1.879 -39.588,-13.619 -41.47,-34.629 -1.88,-21.003 13.632,-39.556 34.651,-41.434 21.014,-1.881 39.58,13.62 41.469,34.63 1.875,20.999 -13.636,39.557 -34.65,41.433"
                       style="fill:#00a0c1;fill-opacity:1;fill-rule:nonzero;stroke:none"
                       id="path20901"
                       inkscape:connector-curvature="0" /></g></g></g><path
                 d="m 270.512,139.111 z m 32.351,-43.358 c -1.78,-19.808 -19.346,-34.474 -39.17,-32.705 -9.597,0.859 -18.287,5.402 -24.466,12.794 -6.181,7.387 -9.112,16.747 -8.255,26.341 1.775,19.804 19.347,34.479 39.166,32.702 9.598,-0.857 18.286,-5.398 24.466,-12.787 6.181,-7.394 9.117,-16.75 8.259,-26.345 M 235.969,73.12 c 6.908,-8.265 16.619,-13.337 27.35,-14.298 22.15,-1.981 41.789,14.419 43.772,36.552 0.959,10.727 -2.323,21.18 -9.23,29.44 -6.906,8.262 -16.625,13.341 -27.349,14.297 -4.317,0.386 -8.546,0.074 -12.559,-0.846 -16.578,-3.786 -29.611,-17.882 -31.207,-35.707 -0.962,-10.718 2.315,-21.179 9.223,-29.438"
                 style="fill:#00a0c1;fill-opacity:1;fill-rule:nonzero;stroke:none"
                 id="path20909"
                 inkscape:connector-curvature="0" /><path
                 d="m 204.338,0 c -5.17,9.818 -12.814,23.648 -24.028,43.226 -15.792,27.556 -32.082,54.93 -35.817,61.182 41.725,45.664 109.345,117.571 116.462,119.654 l -0.607,0.02 c 6.549,-1.648 93.53,59.202 144.799,95.619 l 2.423,1.723 c 0,0 -94.703,67.8 -98.412,70.457 3.067,3.392 80.906,89.495 80.906,89.495 l -3.15,2.843 -84.094,-93.02 c 0,0 92.828,-66.464 97.438,-69.758 -52.514,-37.264 -130.615,-91.235 -139.035,-93.161 -0.089,-0.02 -0.162,-0.033 -0.233,-0.041 l 0.387,-0.038 c -2.119,0.529 -5.323,1.335 -64.031,-60.715 -28.605,-30.235 -56.771,-61.072 -57.051,-61.382 l -1.067,-1.164 0.811,-1.354 C 158.748,72.327 184.962,27.307 199.511,0 Z"
                 style="fill:#00a0c1;fill-opacity:1;fill-rule:nonzero;stroke:none"
                 id="path20911"
                 inkscape:connector-curvature="0" /><g
                 id="g20921"><g
                   id="g20913" /><g
                   id="g20919"><g
                     clip-path="url(#clipPath20809)"
                     id="g20917"><path
                       d="m 394.703,507.488 c -13.641,3.43 -27.486,-4.836 -30.916,-18.474 -3.431,-13.637 4.847,-27.469 18.494,-30.901 13.644,-3.425 27.481,4.847 30.912,18.481 3.429,13.637 -4.848,27.469 -18.49,30.894"
                       style="fill:#00a0c1;fill-opacity:1;fill-rule:nonzero;stroke:none"
                       id="path20915"
                       inkscape:connector-curvature="0" /></g></g></g><path
                 d="m 395.222,509.546 z m 15.916,-32.432 c -1.525,-6.043 -5.306,-11.139 -10.664,-14.335 -5.354,-3.201 -11.63,-4.13 -17.674,-2.606 -12.487,3.141 -20.091,15.847 -16.953,28.32 1.524,6.052 5.305,11.14 10.659,14.341 5.347,3.196 11.629,4.119 17.679,2.6 6.049,-1.523 11.148,-5.302 14.344,-10.651 3.204,-5.35 4.128,-11.625 2.609,-17.669 m -29.379,-21.053 c 7.149,-1.797 14.569,-0.706 20.892,3.07 6.327,3.785 10.802,9.802 12.601,16.945 1.799,7.145 0.703,14.563 -3.078,20.884 -3.781,6.321 -9.8,10.792 -16.952,12.586 -4.288,1.078 -8.67,1.12 -12.863,0.162 -2.793,-0.637 -5.502,-1.721 -8.034,-3.232 -6.322,-3.785 -10.8,-9.801 -12.593,-16.945 -3.716,-14.749 5.269,-29.763 20.027,-33.47"
                 style="fill:#00a0c1;fill-opacity:1;fill-rule:nonzero;stroke:none"
                 id="path20923"
                 inkscape:connector-curvature="0" /><g
                 id="g20933"><g
                   id="g20925" /><g
                   id="g20931"><g
                     clip-path="url(#clipPath20813)"
                     id="g20929"><path
                       d="m 312.201,416.231 c -13.649,3.432 -27.488,-4.848 -30.917,-18.477 -3.43,-13.639 4.848,-27.472 18.489,-30.9 13.642,-3.43 27.487,4.848 30.916,18.479 3.437,13.632 -4.846,27.465 -18.488,30.898"
                       style="fill:#00a0c1;fill-opacity:1;fill-rule:nonzero;stroke:none"
                       id="path20927"
                       inkscape:connector-curvature="0" /></g></g></g><path
                 d="m 312.72,418.285 z m 15.91,-32.435 c -3.139,-12.482 -15.857,-20.076 -28.338,-16.939 -12.481,3.139 -20.086,15.843 -16.953,28.326 3.143,12.476 15.857,20.075 28.344,16.933 l 0.005,0.003 c 12.482,-3.136 20.085,-15.847 16.942,-28.323 m -29.375,-21.055 c 14.755,-3.706 29.78,5.27 33.495,20.019 3.711,14.746 -5.274,29.764 -20.03,33.471 -4.361,1.097 -8.737,1.085 -12.84,0.149 -9.808,-2.244 -18.036,-9.771 -20.655,-20.162 -3.711,-14.751 5.275,-29.76 20.03,-33.477"
                 style="fill:#00a0c1;fill-opacity:1;fill-rule:nonzero;stroke:none"
                 id="path20935"
                 inkscape:connector-curvature="0" /><g
                 id="g20945"><g
                   id="g20937" /><g
                   id="g20943"><g
                     clip-path="url(#clipPath20817)"
                     id="g20941"><path
                       d="m 410.126,346.119 c -13.644,3.43 -27.48,-4.841 -30.916,-18.477 -3.425,-13.639 4.847,-27.473 18.494,-30.896 13.644,-3.428 27.481,4.846 30.912,18.474 3.435,13.636 -4.843,27.468 -18.49,30.899"
                       style="fill:#bfdf14;fill-opacity:1;fill-rule:nonzero;stroke:none"
                       id="path20939"
                       inkscape:connector-curvature="0" /></g></g></g><path
                 d="m 410.648,348.172 h -0.005 z m 15.913,-32.435 c -3.145,-12.473 -15.858,-20.075 -28.338,-16.938 -12.488,3.138 -20.091,15.844 -16.953,28.325 1.524,6.042 5.305,11.134 10.658,14.335 5.353,3.199 11.635,4.124 17.679,2.601 6.05,-1.517 11.143,-5.306 14.345,-10.651 3.204,-5.351 4.128,-11.623 2.609,-17.672 m -29.373,-21.05 c 14.752,-3.711 29.778,5.271 33.489,20.014 1.797,7.144 0.707,14.562 -3.08,20.889 -3.783,6.318 -9.8,10.785 -16.954,12.582 -4.287,1.084 -8.668,1.119 -12.863,0.161 -2.791,-0.637 -5.496,-1.721 -8.024,-3.235 -6.33,-3.776 -10.81,-9.791 -12.607,-16.939 -3.703,-14.752 5.283,-29.765 20.039,-33.472"
                 style="fill:#00a0c1;fill-opacity:1;fill-rule:nonzero;stroke:none"
                 id="path20947"
                 inkscape:connector-curvature="0" /><g
                 id="g20957"><g
                   id="g20949" /><g
                   id="g20955"><g
                     clip-path="url(#clipPath20821)"
                     id="g20953"><path
                       d="m 267.071,250.825 c -13.643,3.432 -27.487,-4.844 -30.911,-18.483 -3.437,-13.626 4.841,-27.46 18.489,-30.894 13.642,-3.43 27.48,4.844 30.916,18.484 3.424,13.633 -4.847,27.465 -18.494,30.893"
                       style="fill:#80cc28;fill-opacity:1;fill-rule:nonzero;stroke:none"
                       id="path20951"
                       inkscape:connector-curvature="0" /></g></g></g><path
                 d="m 283.504,220.449 c -1.523,-6.049 -5.305,-11.137 -10.657,-14.338 -5.354,-3.201 -11.63,-4.125 -17.68,-2.601 -6.056,1.52 -11.147,5.308 -14.351,10.656 -3.197,5.349 -4.121,11.621 -2.602,17.659 1.524,6.049 5.306,11.136 10.659,14.338 5.353,3.201 11.634,4.123 17.679,2.609 12.487,-3.142 20.091,-15.846 16.952,-28.323 m -46.333,-8.459 c 3.788,-6.325 9.808,-10.798 16.96,-12.594 7.144,-1.804 14.565,-0.706 20.896,3.074 6.323,3.777 10.801,9.801 12.593,16.944 3.709,14.746 -5.277,29.761 -20.032,33.471 -7.144,1.797 -14.57,0.705 -20.895,-3.079 -6.322,-3.786 -10.797,-9.802 -12.594,-16.946 -1.798,-7.138 -0.709,-14.55 3.072,-20.87"
                 style="fill:#639f1e;fill-opacity:1;fill-rule:nonzero;stroke:none"
                 id="path20959"
                 inkscape:connector-curvature="0" /><g
                 id="g20969"><g
                   id="g20961" /><g
                   id="g20967"><g
                     clip-path="url(#clipPath20825)"
                     id="g20965"><path
                       d="m 148.075,129.365 c -13.639,3.425 -27.484,-4.849 -30.914,-18.482 -3.435,-13.634 4.841,-27.466 18.486,-30.901 13.645,-3.429 27.49,4.845 30.919,18.484 3.434,13.637 -4.846,27.467 -18.491,30.899"
                       style="fill:#00a0c1;fill-opacity:1;fill-rule:nonzero;stroke:none"
                       id="path20963"
                       inkscape:connector-curvature="0" /></g></g></g><path
                 d="m 164.507,98.984 c -1.518,-6.048 -5.303,-11.137 -10.656,-14.339 -5.357,-3.202 -11.632,-4.124 -17.686,-2.6 -12.484,3.139 -20.088,15.844 -16.95,28.319 1.524,6.043 5.312,11.141 10.665,14.336 2.143,1.283 4.431,2.196 6.8,2.738 3.541,0.81 7.25,0.78 10.876,-0.134 12.485,-3.139 20.092,-15.845 16.951,-28.32 M 135.126,77.93 c 7.155,-1.803 14.577,-0.707 20.905,3.073 6.323,3.786 10.798,9.802 12.596,16.946 3.707,14.746 -5.278,29.763 -20.032,33.469 h -0.006 c -7.145,1.798 -14.564,0.705 -20.892,-3.073 -6.326,-3.784 -10.801,-9.8 -12.599,-16.945 -3.71,-14.746 5.273,-29.762 20.028,-33.47"
                 style="fill:#00a0c1;fill-opacity:1;fill-rule:nonzero;stroke:none"
                 id="path20971"
                 inkscape:connector-curvature="0" /><g
                 id="g20981"><g
                   id="g20973" /><g
                   id="g20979"><g
                     clip-path="url(#clipPath20829)"
                     id="g20977"><path
                       d="m 220.243,0 c -0.692,0.238 -1.4,0.45 -2.124,0.632 -5,1.258 -10.027,0.942 -14.558,-0.632 z"
                       style="fill:#00a0c1;fill-opacity:1;fill-rule:nonzero;stroke:none"
                       id="path20975"
                       inkscape:connector-curvature="0" /></g></g></g><path
                 d="m 225.429,0 c -2.108,1.179 -4.386,2.085 -6.791,2.69 C 214.283,3.782 209.9,3.777 205.792,2.836 203.204,2.245 200.725,1.285 198.43,0 Z"
                 style="fill:#00a0c1;fill-opacity:1;fill-rule:nonzero;stroke:none"
                 id="path20983"
                 inkscape:connector-curvature="0" /><path
                 d="M 218.638,2.69 Z"
                 style="fill:#00a0c1;fill-opacity:1;fill-rule:nonzero;stroke:none"
                 id="path20985"
                 inkscape:connector-curvature="0" /><path
                 d="m 180.326,0 c 9.945,4.089 29.669,13.14 69.344,32.828 l 2.669,1.324 c 0,0 -40.177,39.618 -43.301,42.696 3.419,2.757 46.039,37.132 46.039,37.132 l -2.668,3.303 -49.739,-40.122 c 0,0 38.617,-38.076 42.445,-41.851 C 218.307,22.045 177.458,2.43 171.266,1.012 171.086,0.971 170.932,0.943 170.813,0.936 l 0.643,-0.134 C 171.034,0.981 170.474,1.221 168.063,0 Z"
                 style="fill:#00a0c1;fill-opacity:1;fill-rule:nonzero;stroke:none"
                 id="path20987"
                 inkscape:connector-curvature="0" /><g
                 id="g20997"><g
                   id="g20989" /><g
                   id="g20995"><g
                     clip-path="url(#clipPath20833)"
                     id="g20993"><path
                       d="m 258.739,127.336 c -6.467,2.759 -13.951,-0.245 -16.715,-6.706 -2.756,-6.469 0.251,-13.948 6.718,-16.713 6.472,-2.758 13.945,0.253 16.714,6.716 2.764,6.459 -0.243,13.94 -6.717,16.703"
                       style="fill:#00a0c1;fill-opacity:1;fill-rule:nonzero;stroke:none"
                       id="path20991"
                       inkscape:connector-curvature="0" /></g></g></g><path
                 d="m 263.504,111.459 c -2.299,-5.369 -8.546,-7.884 -13.929,-5.586 -5.383,2.3 -7.889,8.54 -5.597,13.921 1.387,3.24 4.21,5.441 7.408,6.174 2.114,0.481 4.382,0.33 6.521,-0.586 2.607,-1.113 4.626,-3.171 5.686,-5.8 1.054,-2.629 1.018,-5.513 -0.089,-8.123 m -15.602,-9.491 c 7.539,-3.21 16.287,0.303 19.507,7.829 1.56,3.645 1.595,7.685 0.12,11.362 -1.476,3.685 -4.306,6.567 -7.955,8.126 -7.539,3.217 -16.281,-0.296 -19.497,-7.827 -3.215,-7.527 0.298,-16.268 7.825,-19.49"
                 style="fill:#bfdf14;fill-opacity:1;fill-rule:nonzero;stroke:none"
                 id="path20999"
                 inkscape:connector-curvature="0" /><g
                 id="g21009"><g
                   id="g21001" /><g
                   id="g21007"><g
                     clip-path="url(#clipPath20837)"
                     id="g21005"><path
                       d="m 210.856,88.712 c -6.472,2.76 -13.953,-0.24 -16.719,-6.705 -2.757,-6.469 0.25,-13.949 6.717,-16.702 6.467,-2.765 13.952,0.24 16.715,6.704 2.76,6.466 -0.244,13.939 -6.713,16.703"
                       style="fill:#bfdf14;fill-opacity:1;fill-rule:nonzero;stroke:none"
                       id="path21003"
                       inkscape:connector-curvature="0" /></g></g></g><path
                 d="m 215.616,72.845 c -1.114,-2.607 -3.177,-4.631 -5.809,-5.683 -2.629,-1.051 -5.502,-1.018 -8.119,0.092 -2.608,1.113 -4.624,3.17 -5.68,5.795 -1.058,2.634 -1.037,5.52 0.089,8.121 1.381,3.247 4.203,5.441 7.407,6.174 2.107,0.482 4.383,0.331 6.517,-0.58 5.379,-2.296 7.891,-8.542 5.595,-13.919 M 192.065,71.47 c 1.482,-3.683 4.305,-6.567 7.959,-8.119 3.647,-1.559 7.681,-1.602 11.363,-0.123 3.687,1.476 6.575,4.296 8.132,7.951 3.215,7.527 -0.302,16.266 -7.827,19.488 h -0.006 c -7.537,3.211 -16.286,-0.303 -19.496,-7.831 -1.56,-3.648 -1.602,-7.684 -0.125,-11.366"
                 style="fill:#00a0c1;fill-opacity:1;fill-rule:nonzero;stroke:none"
                 id="path21011"
                 inkscape:connector-curvature="0" /><g
                 id="g21021"><g
                   id="g21013" /><g
                   id="g21019"><g
                     clip-path="url(#clipPath20841)"
                     id="g21017"><path
                       d="m 253.727,46.435 c -6.467,2.757 -13.947,-0.247 -16.715,-6.707 -2.758,-6.468 0.243,-13.942 6.717,-16.707 6.467,-2.757 13.951,0.248 16.715,6.71 2.761,6.459 -0.245,13.946 -6.717,16.704"
                       style="fill:#00a0c1;fill-opacity:1;fill-rule:nonzero;stroke:none"
                       id="path21015"
                       inkscape:connector-curvature="0" /></g></g></g><path
                 d="m 254.559,48.384 z m 3.929,-17.817 c -2.298,-5.379 -8.543,-7.887 -13.927,-5.596 -5.382,2.299 -7.89,8.542 -5.597,13.927 2.299,5.371 8.55,7.883 13.928,5.582 2.608,-1.106 4.628,-3.166 5.688,-5.798 1.052,-2.627 1.016,-5.508 -0.092,-8.115 m -15.593,-9.5 c 7.538,-3.211 16.284,0.303 19.494,7.834 1.56,3.646 1.609,7.68 0.125,11.363 -1.475,3.681 -4.304,6.568 -7.955,8.12 -2.989,1.276 -6.174,1.493 -9.128,0.818 -4.479,-1.023 -8.431,-4.099 -10.367,-8.638 -3.216,-7.536 0.296,-16.274 7.831,-19.497"
                 style="fill:#00a0c1;fill-opacity:1;fill-rule:nonzero;stroke:none"
                 id="path21023"
                 inkscape:connector-curvature="0" /><g
                 id="g21033"><g
                   id="g21025" /><g
                   id="g21031"><g
                     clip-path="url(#clipPath20845)"
                     id="g21029"><path
                       d="m 183.309,0 c -0.413,4.509 -3.226,8.654 -7.684,10.558 -6.473,2.76 -13.954,-0.243 -16.719,-6.709 C 158.369,2.59 158.05,1.293 157.933,0 Z"
                       style="fill:#00a0c1;fill-opacity:1;fill-rule:nonzero;stroke:none"
                       id="path21027"
                       inkscape:connector-curvature="0" /></g></g></g><path
                 d="M 176.458,12.506 V 12.504 Z M 185.444,0 c -0.116,1.485 -0.46,2.962 -1.031,4.383 -1.482,3.68 -4.305,6.564 -7.955,8.121 -2.918,1.249 -6.089,1.526 -9.123,0.833 -0.759,-0.173 -1.515,-0.408 -2.254,-0.701 -3.68,-1.484 -6.568,-4.307 -8.124,-7.957 C 156.31,3.168 155.925,1.591 155.8,0 h 4.267 c 0.114,1.022 0.379,2.036 0.795,3.011 1.111,2.61 3.174,4.628 5.806,5.681 2.627,1.059 5.515,1.024 8.12,-0.092 h 0.003 c 2.607,-1.108 4.626,-3.165 5.68,-5.799 0.365,-0.91 0.601,-1.852 0.707,-2.801 z"
                 style="fill:#00a0c1;fill-opacity:1;fill-rule:nonzero;stroke:none"
                 id="path21035"
                 inkscape:connector-curvature="0" /></g></g></g></g></g></g></svg>